<?xml version="1.0" standalone="no"?>
<!DOCTYPE svg PUBLIC "-//W3C//DTD SVG 20010904//EN"
 "http://www.w3.org/TR/2001/REC-SVG-20010904/DTD/svg10.dtd">
<svg version="1.0" xmlns="http://www.w3.org/2000/svg"
 width="500.000000pt" height="500.000000pt" viewBox="0 0 500.000000 500.000000"
 preserveAspectRatio="xMidYMid meet">
<metadata>
Created by potrace 1.11, written by Peter Selinger 2001-2013
</metadata>
<g transform="translate(0.000000,500.000000) scale(0.100000,-0.100000)"
fill="#000000" stroke="none">
<path d="M3592 4065 c-293 -52 -587 -220 -858 -490 -69 -68 -135 -142 -230
-257 -42 -50 -183 -255 -236 -343 -69 -114 -96 -162 -171 -305 -381 -725 -662
-1030 -1057 -1147 -115 -34 -274 -39 -377 -13 -164 43 -312 139 -366 239 -24
43 -28 62 -27 114 5 131 4 146 -10 163 -56 66 -160 43 -233 -53 l-27 -37 0
-183 c0 -167 2 -189 22 -236 20 -47 64 -124 78 -137 4 -3 19 -22 34 -42 35
-47 142 -135 226 -185 128 -78 359 -160 530 -189 25 -4 47 -8 50 -9 4 -1 32
-5 150 -21 62 -9 503 -11 575 -3 505 57 991 282 1436 666 328 283 608 664 609
829 0 43 -4 54 -30 79 -57 55 -162 33 -321 -65 -96 -59 -178 -100 -199 -100
-21 0 -21 3 -15 53 19 146 163 491 278 666 66 100 198 232 262 262 112 52 233
24 295 -69 41 -62 58 -126 64 -246 4 -90 7 -101 31 -126 21 -22 35 -28 60 -25
91 8 154 94 221 299 25 78 49 145 53 149 4 4 22 -6 39 -24 72 -74 118 -239
109 -388 -6 -89 -7 -97 -27 -171 -7 -25 -13 -49 -15 -55 -1 -5 -5 -17 -8 -25
-27 -71 -49 -159 -50 -200 -1 -41 3 -54 24 -75 41 -42 88 -43 165 -5 122 60
258 220 325 382 l29 71 0 249 0 249 -32 77 c-133 319 -471 578 -863 658 -126
26 -185 32 -315 32 -69 0 -158 -6 -198 -13z m331 -115 c31 -2 57 -7 57 -12 0
-4 -8 -8 -18 -8 -26 0 -182 -81 -234 -121 -224 -175 -486 -546 -633 -899 -15
-36 -33 -78 -41 -95 -26 -59 -83 -229 -95 -283 -44 -214 21 -327 189 -323 51
0 119 30 260 112 121 71 172 94 172 78 0 -20 -69 -148 -121 -226 -28 -42 -88
-119 -132 -172 -455 -541 -1116 -904 -1727 -948 -154 -11 -485 -4 -531 11 -8
3 -36 7 -64 10 -155 18 -373 80 -500 144 -88 44 -179 107 -238 166 -89 89 -91
101 -10 65 83 -38 209 -71 318 -84 92 -11 373 -4 396 10 4 3 23 7 44 11 180
28 415 159 585 325 215 211 349 414 669 1012 156 293 343 550 550 758 229 230
467 376 711 437 137 35 212 41 393 32z m419 -131 c255 -86 466 -311 544 -579
27 -95 25 -291 -4 -378 -35 -104 -86 -195 -159 -282 -25 -30 -125 -112 -130
-106 -3 2 10 48 27 102 49 153 62 221 64 332 5 222 -76 429 -196 502 -45 27
-117 27 -152 -1 -35 -28 -45 -49 -101 -217 -47 -140 -65 -176 -65 -130 -3 132
-72 281 -163 345 -150 107 -325 86 -497 -58 l-71 -60 37 53 c216 311 425 472
643 495 31 3 57 6 59 8 9 8 113 -8 164 -26z m-4177 -2094 c9 -22 27 -53 39
-70 41 -55 40 -59 -9 -24 -60 42 -105 110 -105 158 0 19 10 55 22 80 l23 46 6
-75 c4 -41 15 -93 24 -115z"/>
<path d="M4285 2394 c-103 -52 -100 -211 5 -261 100 -48 213 19 214 126 1 58
-19 99 -63 128 -40 27 -110 30 -156 7z m93 -127 c4 -22 -27 -35 -38 -16 -10
15 7 42 24 36 6 -2 12 -11 14 -20z"/>
</g>
</svg>
